<svg class="svg-icon" style="width: 1em;height: 1em;vertical-align: middle;fill: currentColor;overflow: hidden;" viewBox="0 0 1024 1024" version="1.1" xmlns="http://www.w3.org/2000/svg"><path d="M868.416 155.584a21.418667 21.418667 0 0 0-22.165333-5.056l-725.333334 256a21.333333 21.333333 0 0 0 0.042667 40.256l337.877333 118.4 118.378667 337.877333a21.333333 21.333333 0 0 0 20.074667 14.272H597.333333a21.333333 21.333333 0 0 0 20.117334-14.229333l256-725.333333a21.44 21.44 0 0 0-5.034667-22.186667zM597.418667 831.701333l-97.28-277.674666 111.189333-111.210667a21.333333 21.333333 0 0 0-30.165333-30.165333l-111.189334 111.210666-277.632-97.28L818.389333 205.632z" fill="#C5C5C5" /></svg>
