<svg width="128" height="128" viewBox="0 0 33.867 33.867" xmlns="http://www.w3.org/2000/svg"><g stroke-width=".196" fill="#fff"><path d="M5.492 5.495v22.892h22.856V5.495zm3.047 3.052H25.3v16.788H8.54z" fill="#999"/><g transform="matrix(0 3.115 -3.05566 0 148.478 192.913)" fill="#999"><rect width="1.96" height=".748" x="-61.881" y="42.68" rx=".258" ry=".251"/><rect width="1.96" height=".748" x="-61.881" y="44.55" rx=".258" ry=".251"/><rect width="1.96" height=".748" x="-61.881" y="40.81" rx=".258" ry=".251"/></g><g transform="matrix(0 3.115 -3.05566 0 148.478 220.383)" fill="#999"><rect width="1.96" height=".748" x="-61.881" y="42.68" rx=".258" ry=".251"/><rect width="1.96" height=".748" x="-61.881" y="44.55" rx=".258" ry=".251"/><rect width="1.96" height=".748" x="-61.881" y="40.81" rx=".258" ry=".251"/></g><g transform="matrix(3.11018 0 0 3.0604 192.62 -114.821)" fill="#999"><rect width="1.96" height=".748" x="-61.881" y="42.68" rx=".258" ry=".251"/><rect width="1.96" height=".748" x="-61.881" y="44.55" rx=".258" ry=".251"/><rect width="1.96" height=".748" x="-61.881" y="40.81" rx=".258" ry=".251"/></g><g transform="matrix(3.11018 0 0 3.0604 220.047 -114.821)" fill="#999"><rect width="1.96" height=".748" x="-61.881" y="42.68" rx=".258" ry=".251"/><rect width="1.96" height=".748" x="-61.881" y="44.55" rx=".258" ry=".251"/><rect width="1.96" height=".748" x="-61.881" y="40.81" rx=".258" ry=".251"/></g></g></svg>
